<svg xmlns="http://www.w3.org/2000/svg" width="44" height="80" viewBox="0 0 44 80">
<rect width="44" height="80" fill="#fff"/>
<rect x="4" y="4" width="36" height="72" rx="2.5" fill="#f4f4f4" stroke="#888" stroke-width="0.3"/>
<line x1="4" y1="75.5" x2="40" y2="75.5" stroke="#bbb" stroke-width="0.2"/>
<rect x="8" y="8" width="28" height="64" fill="none" stroke="#c44" stroke-width="0.2" stroke-dasharray="1 1"/>
<path d="M29.047 18.618L29.038 18.606L28.023 17.47L27.985 17.423L27.952 17.373L27.925 17.321L27.903 17.265L27.886 17.208L27.875 17.149L27.87 17.09L27.871 17.03L27.878 16.971L27.891 16.913L27.909 16.856L27.933 16.802L27.962 16.75L27.997 16.701L28.036 16.656L28.079 16.615L28.126 16.578L28.176 16.547L28.23 16.52L28.285 16.499L28.343 16.483L29.832 16.161L29.847 16.157L29.855 16.144L30.622 14.828L30.654 14.778L30.692 14.731L30.734 14.689L30.779 14.651L30.829 14.617L30.881 14.589L30.936 14.566L30.993 14.548L31.051 14.536L31.111 14.53L31.17 14.53L31.23 14.536L31.288 14.548L31.345 14.566L31.4 14.589L31.452 14.617L31.502 14.651L31.547 14.689L31.589 14.731L31.626 14.778L31.659 14.828L32.426 16.144L32.434 16.157L32.449 16.161L33.938 16.483L33.995 16.499L34.051 16.52L34.105 16.547L34.155 16.578L34.202 16.615L34.245 16.656L34.284 16.701L34.318 16.75L34.348 16.802L34.372 16.856L34.39 16.913L34.403 16.971L34.41 17.03L34.411 17.09L34.406 17.149L34.395 17.208L34.378 17.265L34.356 17.321L34.328 17.373L34.296 17.423L34.258 17.47L33.243 18.606L33.234 18.618L33.234 18.633L33.388 20.149L33.391 20.208L33.388 20.268L33.379 20.327L33.365 20.385L33.344 20.441L33.319 20.494L33.288 20.545L33.252 20.593L33.212 20.637L33.167 20.676L33.119 20.712L33.068 20.742L33.013 20.766L32.957 20.786L32.899 20.799L32.84 20.807L32.78 20.809L32.721 20.805L32.662 20.795L32.605 20.78L32.549 20.758L31.155 20.144L31.14 20.138L31.126 20.144L29.732 20.758L29.676 20.78L29.619 20.795L29.56 20.805L29.501 20.809L29.441 20.807L29.382 20.799L29.324 20.786L29.268 20.766L29.213 20.742L29.162 20.712L29.114 20.676L29.069 20.637L29.029 20.593L28.993 20.545L28.962 20.494L28.936 20.441L28.916 20.385L28.902 20.327L28.893 20.268L28.89 20.208L28.893 20.149L29.047 18.633ZM25.953 12.035L26.01 12.046L26.067 12.064L26.121 12.086L26.173 12.114L26.222 12.147L26.268 12.184L26.309 12.226L26.347 12.271L26.379 12.32L26.407 12.372L26.43 12.426L26.447 12.483L26.458 12.54L26.464 12.599L26.464 12.658L26.458 12.717L26.447 12.774L26.43 12.831L26.407 12.885L26.379 12.937L26.347 12.986L26.309 13.031L26.268 13.073L26.222 13.11L26.173 13.143L26.121 13.171L26.029 13.214L26.003 13.228L25.292 13.655L25.267 13.671L24.601 14.165L24.579 14.184L23.964 14.74L23.943 14.761L23.386 15.376L23.368 15.398L22.874 16.064L22.858 16.089L22.431 16.8L22.417 16.826L22.063 17.576L22.052 17.603L21.772 18.384L21.764 18.412L21.562 19.216L21.556 19.245L21.435 20.065L21.432 20.095L21.391 20.923L21.391 20.952L21.432 21.781L21.435 21.81L21.556 22.63L21.562 22.659L21.764 23.463L21.772 23.491L22.052 24.272L22.063 24.299L22.417 25.049L22.431 25.075L22.858 25.786L22.874 25.811L23.368 26.477L23.386 26.499L23.943 27.114L23.964 27.135L24.579 27.692L24.601 27.71L25.267 28.204L25.292 28.22L26.003 28.647L26.029 28.661L26.779 29.015L26.806 29.026L27.587 29.306L27.615 29.314L28.419 29.516L28.448 29.522L29.168 29.628L29.226 29.64L29.282 29.657L29.336 29.679L29.388 29.707L29.437 29.74L29.483 29.777L29.524 29.819L29.562 29.864L29.594 29.913L29.622 29.965L29.645 30.02L29.662 30.076L29.673 30.134L29.679 30.192L29.679 30.251L29.673 30.31L29.662 30.368L29.645 30.424L29.622 30.478L29.594 30.53L29.562 30.579L29.524 30.625L29.483 30.666L29.437 30.704L29.388 30.737L29.38 30.742L29.328 30.769L28.494 31.164L28.44 31.186L27.571 31.497L27.515 31.514L26.62 31.738L26.562 31.75L25.65 31.885L25.591 31.891L24.67 31.936L24.611 31.936L23.69 31.891L23.631 31.885L22.719 31.75L22.661 31.738L21.766 31.514L21.71 31.497L20.841 31.186L20.787 31.164L19.953 30.769L19.901 30.742L19.11 30.267L19.061 30.235L18.32 29.685L18.275 29.648L17.591 29.028L17.55 28.987L16.93 28.303L16.893 28.258L16.343 27.517L16.311 27.468L15.836 26.677L15.809 26.625L15.414 25.791L15.392 25.737L15.081 24.868L15.064 24.812L14.84 23.917L14.828 23.859L14.693 22.947L14.687 22.888L14.642 21.967L14.642 21.908L14.687 20.987L14.693 20.928L14.828 20.016L14.84 19.958L15.064 19.063L15.081 19.007L15.392 18.138L15.414 18.084L15.809 17.25L15.836 17.198L16.311 16.407L16.343 16.358L16.893 15.617L16.93 15.572L17.55 14.888L17.591 14.847L18.275 14.227L18.32 14.19L19.061 13.64L19.11 13.608L19.901 13.134L19.953 13.106L20.787 12.711L20.841 12.689L21.71 12.378L21.766 12.361L22.661 12.137L22.719 12.125L23.631 11.99L23.69 11.984L24.611 11.939L24.67 11.939L25.591 11.984L25.65 11.99Z" fill="#000" fill-rule="evenodd"/>
</svg>
