<svg xmlns="http://www.w3.org/2000/svg" width="44" height="80" viewBox="0 0 44 80">
<rect width="44" height="80" fill="#fff"/>
<rect x="4" y="4" width="36" height="72" rx="2.5" fill="#f4f4f4" stroke="#888" stroke-width="0.3"/>
<line x1="4" y1="75.5" x2="40" y2="75.5" stroke="#bbb" stroke-width="0.2"/>
<rect x="8" y="8" width="28" height="64" fill="none" stroke="#c44" stroke-width="0.2" stroke-dasharray="1 1"/>
<path d="M8.223 29.406L8.222 29.372L8.223 29.338L8.274 28.764L8.279 28.729L8.287 28.694L8.44 28.151L8.452 28.115L8.468 28.081L8.725 27.574L8.739 27.548L8.756 27.524L9.095 27.054L9.114 27.03L9.135 27.008L9.552 26.59L9.572 26.572L9.577 26.567L9.598 26.55L10.085 26.185L10.112 26.167L10.14 26.151L10.701 25.861L10.723 25.851L10.729 25.848L10.752 25.839L11.361 25.619L11.385 25.611L11.391 25.609L11.417 25.603L12.07 25.461L12.095 25.457L12.102 25.456L12.128 25.453L12.821 25.399L12.844 25.398L12.85 25.398L12.873 25.399L13.066 25.407L13.068 25.407L13.26 25.416L13.269 25.417L13.271 25.417L13.279 25.418L13.47 25.435L13.48 25.436L13.482 25.436L13.492 25.437L13.673 25.463L13.681 25.465L13.684 25.465L13.692 25.467L13.874 25.501L13.883 25.503L13.885 25.503L13.894 25.505L14.082 25.55L14.086 25.551L14.233 25.588L14.243 25.59L14.276 25.597L14.295 25.599L14.324 25.602L14.343 25.603L14.372 25.603L14.392 25.602L14.421 25.599L14.44 25.595L14.468 25.589L14.487 25.584L14.514 25.576L14.533 25.569L14.559 25.557L14.577 25.549L14.602 25.534L14.618 25.524L14.642 25.507L14.657 25.495L14.679 25.476L14.693 25.463L14.713 25.442L14.726 25.427L14.743 25.404L14.754 25.388L14.77 25.364L14.779 25.347L14.792 25.321L14.799 25.303L14.809 25.276L14.815 25.257L14.822 25.229L14.826 25.21L14.831 25.181L14.833 25.162L14.834 25.128L14.834 25.119L14.834 13.38L14.835 13.361L14.835 13.357L14.836 13.339L14.851 13.189L14.855 13.158L14.862 13.127L14.896 12.995L14.902 12.977L14.903 12.973L14.909 12.956L14.957 12.825L14.97 12.793L14.986 12.763L15.05 12.654L15.066 12.63L15.083 12.607L15.176 12.493L15.188 12.478L15.192 12.474L15.205 12.46L15.302 12.363L15.322 12.345L15.327 12.34L15.349 12.323L15.454 12.244L15.476 12.229L15.481 12.225L15.503 12.212L15.625 12.145L15.651 12.131L15.678 12.12L15.805 12.073L15.833 12.064L15.862 12.057L16.007 12.028L16.023 12.025L16.027 12.025L16.043 12.023L30.853 10.317L30.865 10.316L30.868 10.316L30.88 10.315L31.019 10.308L31.058 10.308L31.098 10.312L31.213 10.331L31.238 10.335L31.244 10.337L31.268 10.343L31.376 10.375L31.404 10.384L31.431 10.396L31.528 10.441L31.566 10.462L31.602 10.487L31.678 10.547L31.701 10.566L31.722 10.588L31.796 10.668L31.816 10.691L31.834 10.715L31.897 10.811L31.912 10.835L31.925 10.86L31.975 10.966L31.988 10.998L31.999 11.031L32.028 11.141L32.036 11.18L32.04 11.22L32.047 11.361L32.047 11.371L32.047 11.373L32.047 11.383L32.047 28.028L32.047 28.045L32.047 28.049L32.046 28.066L31.993 28.655L31.988 28.69L31.98 28.725L31.827 29.268L31.815 29.304L31.8 29.338L31.543 29.843L31.53 29.867L31.526 29.873L31.511 29.897L31.173 30.373L31.153 30.398L31.132 30.422L30.715 30.839L30.693 30.859L30.67 30.877L30.181 31.235L30.158 31.251L30.153 31.254L30.129 31.268L29.569 31.566L29.544 31.577L29.538 31.58L29.513 31.59L28.907 31.81L28.882 31.818L28.876 31.82L28.851 31.826L28.197 31.967L28.169 31.972L28.14 31.975L27.448 32.02L27.423 32.02L27.417 32.02L27.393 32.02L26.69 31.975L26.662 31.972L26.634 31.967L25.98 31.826L25.955 31.82L25.949 31.818L25.924 31.81L25.317 31.59L25.292 31.58L25.286 31.577L25.262 31.566L24.702 31.268L24.678 31.254L24.672 31.251L24.649 31.235L24.161 30.877L24.138 30.859L24.116 30.839L23.699 30.422L23.677 30.398L23.657 30.373L23.32 29.897L23.305 29.873L23.301 29.867L23.287 29.843L23.031 29.338L23.015 29.304L23.003 29.268L22.851 28.725L22.842 28.69L22.838 28.655L22.786 28.081L22.785 28.047L22.786 28.013L22.838 27.44L22.843 27.404L22.851 27.369L23.004 26.833L23.015 26.8L23.03 26.767L23.288 26.251L23.303 26.224L23.32 26.198L23.658 25.73L23.677 25.705L23.698 25.683L24.115 25.266L24.135 25.247L24.14 25.243L24.161 25.225L24.649 24.86L24.675 24.842L24.703 24.826L25.264 24.537L25.286 24.526L25.292 24.524L25.315 24.514L25.924 24.294L25.949 24.286L25.955 24.284L25.98 24.278L26.634 24.136L26.662 24.131L26.69 24.128L27.406 24.083L27.419 24.083L27.422 24.082L27.434 24.082L27.621 24.082L27.63 24.082L27.632 24.082L27.641 24.083L27.832 24.091L27.841 24.092L27.844 24.092L27.853 24.093L28.034 24.11L28.043 24.111L28.045 24.111L28.054 24.113L28.236 24.138L28.245 24.14L28.247 24.14L28.256 24.142L28.438 24.176L28.446 24.178L28.448 24.179L28.457 24.181L28.645 24.225L28.65 24.226L28.797 24.263L28.806 24.265L28.839 24.272L28.858 24.275L28.887 24.277L28.907 24.278L28.936 24.278L28.955 24.277L28.984 24.274L29.003 24.271L29.031 24.265L29.05 24.26L29.078 24.251L29.096 24.244L29.122 24.232L29.14 24.224L29.165 24.21L29.181 24.199L29.205 24.183L29.22 24.171L29.242 24.152L29.256 24.138L29.276 24.117L29.289 24.102L29.306 24.079L29.318 24.064L29.333 24.039L29.342 24.022L29.355 23.996L29.362 23.978L29.373 23.951L29.378 23.932L29.386 23.904L29.389 23.885L29.394 23.857L29.396 23.837L29.397 23.804L29.398 23.794L29.398 16.322L29.397 16.312L29.396 16.279L29.394 16.26L29.39 16.232L29.386 16.213L29.379 16.185L29.373 16.167L29.364 16.14L29.356 16.123L29.344 16.097L29.335 16.08L29.32 16.056L29.309 16.04L29.292 16.017L29.28 16.003L29.261 15.982L29.247 15.968L29.226 15.949L29.211 15.937L29.188 15.921L29.172 15.91L29.148 15.896L29.131 15.887L29.105 15.875L29.087 15.868L29.06 15.859L29.042 15.854L29.014 15.847L28.995 15.843L28.967 15.84L28.948 15.838L28.92 15.837L28.901 15.837L28.867 15.84L28.858 15.84L17.914 17.102L17.905 17.103L17.872 17.108L17.854 17.112L17.827 17.119L17.809 17.125L17.783 17.135L17.766 17.142L17.741 17.154L17.725 17.163L17.701 17.178L17.686 17.188L17.663 17.205L17.649 17.217L17.629 17.236L17.615 17.249L17.597 17.27L17.585 17.285L17.569 17.307L17.558 17.323L17.544 17.347L17.536 17.363L17.524 17.389L17.517 17.406L17.507 17.432L17.502 17.45L17.495 17.477L17.492 17.496L17.488 17.523L17.486 17.542L17.484 17.574L17.484 17.584L17.484 29.353L17.484 29.37L17.483 29.374L17.482 29.391L17.43 29.98L17.425 30.015L17.417 30.049L17.264 30.593L17.252 30.629L17.237 30.663L16.98 31.168L16.966 31.192L16.963 31.198L16.947 31.222L16.61 31.697L16.59 31.723L16.568 31.747L16.151 32.164L16.13 32.184L16.107 32.202L15.618 32.56L15.595 32.575L15.589 32.579L15.565 32.593L15.005 32.89L14.981 32.902L14.975 32.905L14.95 32.915L14.343 33.135L14.319 33.143L14.313 33.145L14.288 33.151L13.634 33.292L13.606 33.297L13.577 33.3L12.875 33.345L12.85 33.345L12.844 33.345L12.82 33.345L12.127 33.3L12.099 33.297L12.07 33.292L11.417 33.151L11.391 33.145L11.385 33.143L11.361 33.135L10.754 32.915L10.729 32.905L10.723 32.902L10.699 32.89L10.139 32.593L10.115 32.579L10.109 32.575L10.086 32.56L9.597 32.202L9.574 32.184L9.553 32.164L9.136 31.747L9.114 31.723L9.094 31.697L8.757 31.222L8.741 31.198L8.738 31.192L8.724 31.168L8.468 30.663L8.452 30.629L8.44 30.593L8.287 30.049L8.279 30.015L8.274 29.98Z" fill="#000" fill-rule="evenodd"/>
</svg>
