<svg xmlns="http://www.w3.org/2000/svg" width="44" height="80" viewBox="0 0 44 80">
<rect width="44" height="80" fill="#fff"/>
<rect x="4" y="4" width="36" height="72" rx="2.5" fill="#f4f4f4" stroke="#888" stroke-width="0.3"/>
<line x1="4" y1="75.5" x2="40" y2="75.5" stroke="#bbb" stroke-width="0.2"/>
<rect x="8" y="8" width="28" height="64" fill="none" stroke="#c44" stroke-width="0.2" stroke-dasharray="1 1"/>
<path d="M18.949 55.743L18.93 55.658L18.919 55.572L18.916 55.484L18.922 55.397L18.936 55.311L18.958 55.227L18.989 55.145L19.027 55.066L19.073 54.992L19.126 54.922L19.185 54.858L19.25 54.8L19.321 54.748L19.396 54.704L19.475 54.667L19.557 54.638L19.642 54.617L19.728 54.604L19.816 54.6L24.184 54.6L24.272 54.604L24.358 54.617L24.443 54.638L24.525 54.667L24.604 54.704L24.679 54.748L24.75 54.8L24.815 54.858L24.874 54.922L24.927 54.992L24.973 55.066L25.011 55.145L25.042 55.227L25.064 55.311L25.078 55.397L25.084 55.484L25.081 55.572L25.07 55.658L25.051 55.743L25.023 55.826L22.839 61.443L22.802 61.525L22.757 61.603L22.705 61.676L22.646 61.744L22.58 61.805L22.508 61.86L22.431 61.907L22.35 61.946L22.266 61.977L22.179 61.999L22.09 62.012L22 62.017L21.91 62.012L21.821 61.999L21.734 61.977L21.65 61.946L21.569 61.907L21.492 61.86L21.42 61.805L21.354 61.744L21.295 61.676L21.243 61.603L21.198 61.525L21.161 61.443L18.977 55.826ZM17.483 52.276L17.461 52.361L17.431 52.444L17.394 52.524L17.348 52.6L17.296 52.671L17.236 52.736L17.171 52.796L17.1 52.848L17.024 52.894L16.944 52.931L16.861 52.961L16.776 52.983L16.688 52.996L16.6 53L11.624 53L11.537 52.996L11.451 52.983L11.366 52.962L11.284 52.933L11.205 52.897L11.13 52.852L11.06 52.801L10.995 52.743L10.935 52.68L10.882 52.61L10.837 52.536L10.798 52.458L10.767 52.377L10.745 52.293L10.73 52.207L10.724 52.12L10.726 52.033L10.737 51.946L10.756 51.861L10.783 51.779L10.818 51.699L10.861 51.623L15.5 44.2L15.5 23L15.5 21L15.501 20.846L15.504 20.692L15.509 20.538L15.515 20.384L15.524 20.23L15.534 20.076L15.546 19.923L15.56 19.769L15.577 19.616L15.594 19.463L15.614 19.31L15.636 19.157L15.659 19.005L15.685 18.853L15.712 18.701L15.741 18.55L15.772 18.399L15.805 18.249L15.84 18.098L15.876 17.949L15.915 17.799L15.955 17.651L15.997 17.502L16.041 17.355L16.086 17.207L16.134 17.061L16.183 16.915L16.234 16.769L16.287 16.625L16.341 16.481L16.398 16.337L16.456 16.194L16.516 16.052L16.577 15.911L16.641 15.771L16.706 15.631L16.772 15.492L16.841 15.354L16.911 15.217L16.983 15.08L17.056 14.945L17.131 14.81L17.208 14.677L17.287 14.544L17.367 14.412L17.448 14.282L17.532 14.152L17.616 14.023L17.703 13.896L17.791 13.769L17.88 13.644L17.971 13.519L18.064 13.396L18.158 13.274L18.253 13.153L18.35 13.033L18.449 12.915L18.549 12.798L18.65 12.682L18.753 12.567L18.857 12.453L18.963 12.341L19.07 12.23L19.178 12.12L19.288 12.012L19.399 11.905L19.511 11.8L19.624 11.695L19.739 11.593L19.855 11.491L19.973 11.391L20.091 11.293L20.211 11.196L20.332 11.1L20.454 11.006L20.577 10.914L20.701 10.823L20.827 10.733L20.953 10.645L21.081 10.559L21.21 10.474L21.339 10.391L21.47 10.309L21.602 10.229L21.734 10.15L21.868 10.074L22 10L22.132 10.074L22.266 10.15L22.398 10.229L22.53 10.309L22.661 10.391L22.79 10.474L22.919 10.559L23.047 10.645L23.173 10.733L23.299 10.823L23.423 10.914L23.546 11.006L23.668 11.1L23.789 11.196L23.909 11.293L24.027 11.391L24.145 11.491L24.261 11.593L24.376 11.695L24.489 11.8L24.601 11.905L24.712 12.012L24.822 12.12L24.93 12.23L25.037 12.341L25.143 12.453L25.247 12.567L25.35 12.682L25.451 12.798L25.551 12.915L25.65 13.033L25.747 13.153L25.842 13.274L25.936 13.396L26.029 13.519L26.12 13.644L26.209 13.769L26.297 13.896L26.384 14.023L26.468 14.152L26.552 14.282L26.633 14.412L26.713 14.544L26.792 14.677L26.869 14.81L26.944 14.945L27.017 15.08L27.089 15.217L27.159 15.354L27.228 15.492L27.294 15.631L27.359 15.771L27.423 15.911L27.484 16.052L27.544 16.194L27.602 16.337L27.659 16.481L27.713 16.625L27.766 16.769L27.817 16.915L27.866 17.061L27.914 17.207L27.959 17.355L28.003 17.502L28.045 17.651L28.085 17.799L28.124 17.949L28.16 18.098L28.195 18.249L28.228 18.399L28.259 18.55L28.288 18.701L28.315 18.853L28.341 19.005L28.364 19.157L28.386 19.31L28.406 19.463L28.423 19.616L28.44 19.769L28.454 19.923L28.466 20.076L28.476 20.23L28.485 20.384L28.491 20.538L28.496 20.692L28.499 20.846L28.5 21L28.5 23L28.5 44.2L33.139 51.623L33.182 51.699L33.217 51.779L33.244 51.861L33.263 51.946L33.274 52.033L33.276 52.12L33.27 52.207L33.255 52.293L33.233 52.377L33.202 52.458L33.163 52.536L33.118 52.61L33.065 52.68L33.005 52.743L32.94 52.801L32.87 52.852L32.795 52.897L32.716 52.933L32.634 52.962L32.549 52.983L32.463 52.996L32.376 53L27.4 53L27.312 52.996L27.224 52.983L27.139 52.961L27.056 52.931L26.976 52.894L26.9 52.848L26.829 52.796L26.764 52.736L26.704 52.671L26.652 52.6L26.606 52.524L26.569 52.444L26.539 52.361L26.517 52.276L26.504 52.188L26.5 52.1L26.5 51L17.5 51L17.5 52.1L17.496 52.188ZM24.697 26.963L24.632 26.702L24.541 26.448L24.425 26.204L24.287 25.972L24.126 25.755L23.945 25.555L23.745 25.374L23.528 25.213L23.296 25.075L23.052 24.959L22.798 24.868L22.536 24.803L22.27 24.763L22 24.75L21.73 24.763L21.464 24.803L21.202 24.868L20.948 24.959L20.704 25.075L20.472 25.213L20.255 25.374L20.055 25.555L19.874 25.755L19.713 25.972L19.575 26.204L19.459 26.448L19.368 26.702L19.303 26.963L19.263 27.23L19.25 27.5L19.263 27.77L19.303 28.036L19.368 28.298L19.459 28.552L19.575 28.796L19.713 29.028L19.874 29.245L20.055 29.445L20.255 29.626L20.472 29.787L20.704 29.925L20.948 30.041L21.202 30.132L21.464 30.197L21.73 30.237L22 30.25L22.27 30.237L22.536 30.197L22.798 30.132L23.052 30.041L23.296 29.925L23.528 29.787L23.745 29.626L23.945 29.445L24.126 29.245L24.287 29.028L24.425 28.796L24.541 28.552L24.632 28.298L24.697 28.036L24.737 27.77L24.75 27.5L24.737 27.23Z" fill="#000" fill-rule="evenodd"/>
</svg>
